<svg xmlns="http://www.w3.org/2000/svg" xmlns:xlink="http://www.w3.org/1999/xlink" xmlns:svgjs="http://svgjs.com/svgjs" version="1.1" width="512" height="512" x="0" y="0" viewBox="0 0 64 64" style="enable-background:new 0 0 512 512" xml:space="preserve"><g><path d="M62 37a1 1 0 0 0 1-1v-4a1 1 0 0 0-1-1H47V19h1a1 1 0 0 0 1-1v-4a1 1 0 0 0-1-1H16a1 1 0 0 0-1 1v4a1 1 0 0 0 1 1h1v12H2a1 1 0 0 0-1 1v4a1 1 0 0 0 1 1h1v20H2a1 1 0 0 0-1 1v4a1 1 0 0 0 1 1h60a1 1 0 0 0 1-1v-4a1 1 0 0 0-1-1h-1V37Zm-1-4v2H47v-2ZM17 15h30v2H17Zm28 4v38h-5v-6h1a1 1 0 0 0 1-1v-4a1 1 0 0 0-1-1H23a1 1 0 0 0-1 1v4a1 1 0 0 0 1 1h1v6h-5V19ZM24 49v-2h16v2Zm7 2v6h-5v-6Zm2 0h5v6h-5ZM3 33h14v2H3Zm2 4h12v20H5Zm56 24H3v-2h58Zm-2-4H47V37h12ZM28.932 7.442l-.391 2.4a1 1 0 0 0 1.471 1.036L32 9.776l1.988 1.1a1 1 0 0 0 1.471-1.036l-.391-2.4 1.648-1.688a1 1 0 0 0-.565-1.687l-2.236-.341-1.01-2.151a1 1 0 0 0-1.81 0l-1.01 2.151-2.236.341a1 1 0 0 0-.565 1.687Zm1.983-1.82a1 1 0 0 0 .754-.563l.331-.7.331.705a1 1 0 0 0 .754.563l.84.128-.641.657a1 1 0 0 0-.271.86l.14.862-.67-.37a1 1 0 0 0-.966 0l-.67.37.14-.862a1 1 0 0 0-.271-.86l-.641-.657ZM41.432 9.166l-.274 1.673a1 1 0 0 0 1.471 1.036L44 11.117l1.371.758a.988.988 0 0 0 .483.125 1 1 0 0 0 .988-1.161l-.274-1.673 1.148-1.176a1 1 0 0 0-.565-1.69l-1.546-.238-.7-1.491a1 1 0 0 0-1.81 0l-.7 1.491-1.546.238a1 1 0 0 0-.565 1.686Zm1.793-1.2a1 1 0 0 0 .754-.564L44 7.354l.021.045a1 1 0 0 0 .754.564l.151.023-.142.145a1 1 0 0 0-.271.859l.022.138-.052-.028a1 1 0 0 0-.966 0l-.052.028.022-.138a1 1 0 0 0-.271-.859l-.142-.145ZM16.432 9.166l-.274 1.673a1 1 0 0 0 1.471 1.036L19 11.117l1.371.758a.988.988 0 0 0 .483.125 1 1 0 0 0 .988-1.161l-.274-1.673 1.148-1.176a1 1 0 0 0-.565-1.69l-1.546-.238-.7-1.491a1 1 0 0 0-1.81 0l-.7 1.491-1.546.238a1 1 0 0 0-.565 1.686Zm1.793-1.2a1 1 0 0 0 .754-.564L19 7.354l.021.045a1 1 0 0 0 .754.564l.151.023-.142.145a1 1 0 0 0-.271.859l.022.138-.052-.028a1 1 0 0 0-.966 0l-.052.028.022-.138a1 1 0 0 0-.271-.859l-.142-.145Z" fill="#000000" data-original="#000000"/><path d="M22 27h4a1 1 0 0 0 1-1v-4a1 1 0 0 0-1-1h-4a1 1 0 0 0-1 1v4a1 1 0 0 0 1 1Zm1-4h2v2h-2ZM30 27h4a1 1 0 0 0 1-1v-4a1 1 0 0 0-1-1h-4a1 1 0 0 0-1 1v4a1 1 0 0 0 1 1Zm1-4h2v2h-2ZM38 27h4a1 1 0 0 0 1-1v-4a1 1 0 0 0-1-1h-4a1 1 0 0 0-1 1v4a1 1 0 0 0 1 1Zm1-4h2v2h-2ZM22 35h4a1 1 0 0 0 1-1v-4a1 1 0 0 0-1-1h-4a1 1 0 0 0-1 1v4a1 1 0 0 0 1 1Zm1-4h2v2h-2ZM30 35h4a1 1 0 0 0 1-1v-4a1 1 0 0 0-1-1h-4a1 1 0 0 0-1 1v4a1 1 0 0 0 1 1Zm1-4h2v2h-2ZM38 35h4a1 1 0 0 0 1-1v-4a1 1 0 0 0-1-1h-4a1 1 0 0 0-1 1v4a1 1 0 0 0 1 1Zm1-4h2v2h-2ZM22 43h4a1 1 0 0 0 1-1v-4a1 1 0 0 0-1-1h-4a1 1 0 0 0-1 1v4a1 1 0 0 0 1 1Zm1-4h2v2h-2ZM30 43h4a1 1 0 0 0 1-1v-4a1 1 0 0 0-1-1h-4a1 1 0 0 0-1 1v4a1 1 0 0 0 1 1Zm1-4h2v2h-2ZM38 43h4a1 1 0 0 0 1-1v-4a1 1 0 0 0-1-1h-4a1 1 0 0 0-1 1v4a1 1 0 0 0 1 1Zm1-4h2v2h-2ZM50 53h6a1 1 0 0 0 1-1v-9a4 4 0 0 0-8 0v9a1 1 0 0 0 1 1Zm1-2v-2h4v2Zm2-10a2 2 0 0 1 2 2v4h-4v-4a2 2 0 0 1 2-2ZM11 39a4 4 0 0 0-4 4v9a1 1 0 0 0 1 1h6a1 1 0 0 0 1-1v-9a4 4 0 0 0-4-4Zm0 2a2 2 0 0 1 2 2v4H9v-4a2 2 0 0 1 2-2ZM9 51v-2h4v2Z" fill="#000000" data-original="#000000"/></g></svg>