<svg width="30" height="30" viewBox="0 0 30 30" fill="none" xmlns="http://www.w3.org/2000/svg">
<g id="Group 57">
<circle id="Ellipse 88" cx="15" cy="15" r="14.5" fill="url(#paint0_radial_39_24)" stroke="url(#paint1_angular_39_24)"/>
<path id="Vector" d="M20.1249 8.88639C13.0754 3.20609 3.58221 11.4472 8.23483 19.1296L7.76487 22.0628C7.67088 22.5284 8.09384 23.0406 8.56381 22.994C8.6108 23.0871 11.4306 22.0628 11.5716 22.0163C20.0779 25.9273 27.1743 14.9857 20.1249 8.88639ZM16.5062 21.7835C14.9083 22.1094 13.2634 21.9231 11.8065 21.1782C11.7126 21.0851 11.5716 21.0851 11.4306 21.1316L8.70479 22.0628L9.17476 19.1296C9.17476 19.0364 9.17476 18.8968 9.08076 18.8036C8.32882 17.6396 7.95285 16.2894 7.95285 14.8926C7.95285 9.02607 15.0493 5.81344 19.5139 9.58479C24.0256 13.263 22.1927 20.5729 16.5062 21.7835ZM18.997 15.0323C18.997 15.9635 17.5871 15.9635 17.5871 15.0323C17.5871 14.1011 18.997 14.1011 18.997 15.0323ZM15.7072 15.0323C15.7072 15.9635 14.2973 15.9635 14.2973 15.0323C14.2973 14.1011 15.7072 14.1011 15.7072 15.0323ZM12.4175 15.0323C12.4175 15.9635 11.0076 15.9635 11.0076 15.0323C11.0076 14.1011 12.4175 14.1011 12.4175 15.0323Z" fill="white"/>
</g>
<defs>
<radialGradient id="paint0_radial_39_24" cx="0" cy="0" r="1" gradientUnits="userSpaceOnUse" gradientTransform="translate(15 15) rotate(90) scale(14)">
<stop stop-color="#640000"/>
<stop offset="1" stop-color="#3C1717"/>
</radialGradient>
<radialGradient id="paint1_angular_39_24" cx="0" cy="0" r="1" gradientUnits="userSpaceOnUse" gradientTransform="translate(15 15) rotate(90) scale(14)">
<stop stop-color="#FF0000"/>
<stop offset="1" stop-color="white" stop-opacity="0"/>
</radialGradient>
</defs>
</svg>
